<svg t="1605496280339" class="icon" viewBox="0 0 1024 1024" version="1.1" xmlns="http://www.w3.org/2000/svg" p-id="5153" width="200" height="200"><path d="M903.734 456.037h-559.62c-30.905 0-55.963 25.057-55.963 55.963 0 30.877 25.057 55.963 55.963 55.963h559.62c30.933 0 55.963-25.086 55.963-55.963-0.001-30.905-25.031-55.963-55.963-55.963z m-783.468 0c-30.905 0-55.963 25.057-55.963 55.963 0 30.877 25.057 55.963 55.963 55.963s55.962-25.086 55.962-55.963c0-30.905-25.058-55.963-55.962-55.963z m0-279.81c-30.905 0-55.963 25.057-55.963 55.963s25.057 55.963 55.963 55.963 55.962-25.057 55.962-55.963-25.058-55.962-55.962-55.962z m223.848 111.925h559.62c30.933 0 55.963-25.057 55.963-55.963s-25.03-55.962-55.963-55.962h-559.62c-30.905 0-55.963 25.056-55.963 55.962s25.058 55.963 55.963 55.963z m559.62 447.696h-559.62c-30.905 0-55.963 25.086-55.963 55.963s25.057 55.962 55.963 55.962h559.62c30.933 0 55.963-25.085 55.963-55.962s-25.031-55.963-55.963-55.963z m-783.468 0c-30.905 0-55.963 25.086-55.963 55.963s25.057 55.962 55.963 55.962 55.962-25.085 55.962-55.962-25.058-55.963-55.962-55.963z" p-id="5154" fill="#ffffff"></path></svg>